<svg width="831" height="467" viewBox="0 0 831 467" fill="none" xmlns="http://www.w3.org/2000/svg">
<path d="M61.2851 35.8729C63.9842 35.6806 65.8916 36.1528 67.1782 36.9734C91.6909 47.2379 106.393 130.876 126.438 169.282L134.019 58.8177C134.743 48.2755 128.682 49.6196 129.405 39.0773C129.709 34.6465 132.66 30.7874 139.408 30.3066L167.148 28.3301C173.895 27.8493 176.343 31.3239 176.039 35.7547C175.315 46.2969 169.38 45.8075 168.657 56.3498L158.266 207.761C157.542 218.303 163.603 216.959 162.88 227.501C162.576 231.932 159.625 235.791 152.877 236.272L125.137 238.248C122.588 238.43 120.82 238.1 119.384 237.29C98.8701 229.629 76.23 174.684 59.4567 110.35L52.2532 215.314C51.5297 225.856 57.7405 224.502 57.017 235.044C56.7129 239.475 53.7622 243.334 47.0146 243.815L19.1244 245.802C12.5268 246.272 10.0794 242.797 10.3834 238.367C11.1069 227.824 17.0419 228.314 17.7654 217.771L28.1563 66.3605C28.8798 55.8183 22.819 57.1623 23.5425 46.6201C23.8466 42.1893 26.7973 38.3302 33.395 37.8601L61.2851 35.8729Z" fill="white"/>
<path d="M172.753 147.419C173.173 141.307 177.044 137.078 185.282 130.106L217.004 104.888C223.788 99.5391 225.626 96.6714 231.774 96.2334C238.071 95.7847 239.012 101.647 237.733 120.287L231.221 215.167C230.372 227.543 233.998 231.237 238.197 230.938C239.246 230.864 240.306 230.636 241.387 230.103C241.698 229.929 241.998 229.907 242.448 229.875C244.547 229.726 245.858 232.369 245.679 234.966C245.616 235.883 245.414 236.658 245.072 237.29C241.044 243.811 230.991 262.012 207.599 263.678C192.005 264.789 178.015 257.728 180.207 225.796C180.301 224.421 180.546 223.035 180.65 221.507L184.31 168.185C184.729 162.073 172.323 153.683 172.753 147.419ZM214.083 34.3978C228.478 33.3721 239.374 42.0222 237.958 62.6483C236.542 83.2744 224.346 93.5698 209.952 94.5954C195.707 95.6104 184.734 85.9015 186.076 66.3449C187.418 46.7883 199.838 35.4127 214.083 34.3978Z" fill="white"/>
<path d="M354.735 210.428C358.028 205.937 361.742 203.999 364.891 203.775C368.64 203.508 371.45 206.045 371.198 209.711C371.125 210.781 370.741 212.025 370.057 213.29C356.394 238.437 334.016 251.435 309.424 253.187C271.638 255.879 243.114 227.96 246.983 171.582C250.852 115.204 283.507 82.9254 321.294 80.2331C348.434 78.2993 370.872 90.5362 379.913 119.692C381.01 123.262 381.638 127.171 381.354 131.296C380.736 140.31 375.737 150.093 362.164 156.533C356.609 159.21 351.416 160.948 346.768 161.279C337.321 161.952 330.212 156.833 326.11 142.682C317.982 115.438 308.988 103.004 301.49 103.538C296.992 103.858 294.065 109.54 293.331 120.235C292.587 131.083 294.174 147.086 298.715 167.896C307.688 208.915 319.931 230.545 328.928 229.904C338.075 229.252 346.023 222.148 354.735 210.428Z" fill="white"/>
<path d="M496.889 178.749C500.181 174.257 503.895 172.32 507.044 172.095C510.793 171.828 513.603 174.365 513.352 178.032C513.278 179.101 512.894 180.345 512.211 181.61C498.548 206.758 476.169 219.755 451.578 221.507C413.791 224.199 385.267 196.28 389.136 139.902C393.005 83.524 425.66 51.2457 463.447 48.5534C490.587 46.6196 513.025 58.8565 522.066 88.0119C523.164 91.5826 523.791 95.4909 523.508 99.6161C522.889 108.631 517.891 118.413 504.318 124.854C498.762 127.53 493.57 129.268 488.922 129.599C479.475 130.273 472.365 125.154 468.263 111.002C460.136 83.7583 451.141 71.3238 443.644 71.858C439.145 72.1785 436.219 77.8604 435.485 88.5555C434.74 99.4033 436.328 115.406 440.868 136.216C449.841 177.235 462.084 198.865 471.081 198.224C480.228 197.572 488.176 190.468 496.889 178.749Z" fill="white"/>
<path d="M599.722 62.0126C637.509 59.3203 666.242 84.1839 662.163 143.618C658.084 203.051 625.639 232.274 587.853 234.966C550.066 237.659 521.542 209.739 525.411 153.361C529.28 96.9833 561.935 64.7049 599.722 62.0126ZM580.068 85.3066C575.57 85.6271 572.643 91.309 571.909 102.004C571.165 112.852 572.603 128.866 577.143 149.675C586.116 190.695 598.209 212.335 607.506 211.672C612.004 211.352 615.05 206.118 615.784 195.423C616.517 184.728 614.919 168.877 610.281 147.314C600.866 104.046 589.065 84.6655 580.068 85.3066Z" fill="white"/>
<path d="M723.925 32.6081C723.694 35.9694 722.811 40.1373 721.276 45.112C719.731 50.2394 717.446 55.2674 714.572 60.1854C711.537 65.2669 707.655 69.6485 703.086 73.1668C698.357 76.8486 692.844 78.9139 686.396 79.3733L684.747 79.4908C683.108 79.4556 681.95 78.9299 681.274 77.9138C680.448 76.9084 680.071 75.871 680.165 74.4959C680.239 73.4264 680.612 72.3355 681.435 71.2126C682.098 70.2531 683.19 69.5672 684.56 69.1655C688.982 67.7862 691.838 65.3021 693.3 61.3969C693.471 61.0807 693.642 60.7644 693.673 60.3061C687.557 60.2857 682.487 58.0623 678.453 53.7886C673.701 49.1099 671.666 41.805 672.337 32.0267C673.008 22.2484 676.071 14.5803 681.525 9.02229C686.82 3.62778 693.146 0.592384 700.343 0.0795602C705.141 -0.262323 709.417 0.497348 713.168 2.35857C716.92 4.2198 719.849 7.20394 721.944 11.4638C723.889 15.7343 724.69 21.4547 724.218 28.3301L723.925 32.6081Z" fill="white"/>
<path d="M780.71 50.6947C814.598 48.2801 832.662 65.5418 830.88 91.5154C830.188 101.599 822.409 114.925 812.513 115.63C799.617 116.549 792.355 109.312 793.256 96.1726C794.756 74.3242 785.415 66.9317 775.818 67.6154C769.371 68.0748 764.268 72.8475 763.786 79.8757C763.555 83.237 764.203 86.8397 766.159 90.9575C775.261 110.53 824.535 147.006 822.522 176.34C820.508 205.675 801.379 221.33 766.591 223.809C729.704 226.437 709.339 210.099 711.121 184.126C712.642 161.972 721.765 152.96 734.211 152.073C746.807 151.175 750.734 163.515 749.864 176.196C748.994 188.877 750.46 202.304 763.055 201.407C771.752 200.787 777.476 195.666 778.031 187.568C778.293 183.749 777.269 179.109 774.776 174.117C758.587 142.582 723.824 125.142 725.795 96.4181C727.294 74.5697 746.972 53.0985 780.71 50.6947Z" fill="white"/>
<path d="M87.1037 249.95C129.389 246.938 143.812 265.067 141.568 297.763C140.708 310.291 131.339 327.227 119.194 328.093C102.999 329.246 99.623 313.219 100.378 302.218C102.244 275.022 97.1576 268.695 81.1133 269.838C73.316 270.394 67.8718 275.799 67.3056 284.049C67.012 288.327 68.0155 293.273 70.616 298.865C82.0708 323.288 141.909 368.893 139.393 405.562C136.866 442.383 112.882 463.553 69.397 466.651C23.0634 469.952 -2.09638 449.547 0.13699 417.004C2.04532 389.197 13.2546 378.06 28.8491 376.949C44.4436 375.837 49.9918 397.184 48.9013 413.073C48.6496 416.74 48.2376 420.571 47.9859 424.238C47.1471 436.46 48.2125 447.027 64.4068 445.873C76.2526 445.029 83.5633 434.17 84.3497 422.711C84.6433 418.433 84.0477 414.066 82.371 410.233C63.6589 367.627 15.5121 347.339 18.102 309.601C19.9789 282.252 44.8186 252.963 87.1037 249.95Z" fill="white"/>
<path d="M246.983 419.637C241.09 440.278 233.138 451.792 205.997 453.726C175.558 455.894 167.927 438.802 163.931 416.585L150.919 360.497C150.919 360.497 138.933 345.995 139.363 339.731C139.782 333.62 143.653 329.391 151.891 322.418L183.614 297.2C190.397 291.851 192.085 288.994 198.383 288.546C204.681 288.097 204.342 312.599 204.342 312.599L215.655 393.438C216.299 401.45 218.36 404.04 220.309 403.901C222.258 403.762 224.436 391.596 227.65 377.38C229.098 371.499 230.567 365.313 230.913 360.271C231.123 357.215 231.022 354.333 229.97 352.28C226.546 347.811 220.169 338.535 220.484 333.951C220.903 327.84 224.775 323.611 232.862 316.649L264.585 291.431C271.368 286.082 273.207 283.214 279.354 282.776C285.652 282.328 285.464 306.819 285.464 306.819L296.777 387.658C297.271 395.681 299.331 398.271 301.281 398.132C303.23 397.993 324.945 305.527 324.945 305.527C325.147 304.752 325.199 303.988 325.241 303.377C325.619 297.877 320.444 297.181 320.937 290C321.325 284.347 330.336 279.144 339.333 278.503L360.476 276.996C364.824 276.687 367.85 280.424 367.567 284.549C367.494 285.619 367.271 286.699 366.758 287.648C364.623 292.665 359.563 296.827 358.488 301.616L329.957 406.427C323.6 431.663 317.258 445.798 286.969 447.956C260.878 449.815 251.583 437.402 246.983 419.637Z" fill="white"/>
<path d="M426.109 367.008C433.154 386.119 440.838 395.91 446.986 395.472C456.132 394.821 463.931 387.727 472.793 375.997C476.086 371.505 479.8 369.568 482.799 369.355C486.547 369.087 489.358 371.624 489.117 375.138C489.033 376.36 488.649 377.604 487.965 378.869C474.302 404.017 451.923 417.014 427.482 418.756C389.695 421.448 361.022 393.539 364.891 337.161C368.76 280.783 401.565 248.494 439.351 245.802C466.342 243.879 488.929 256.105 497.97 285.26C499.068 288.831 499.695 292.739 499.412 296.865C498.846 305.115 494.51 313.938 483.316 320.513L434.505 351.206C429.218 354.319 425.86 357.599 425.545 362.183C425.44 363.711 425.635 365.217 426.109 367.008ZM444.373 309.604L444.018 308.261C435.89 281.017 426.895 268.583 419.548 269.106C415.05 269.427 412.123 275.109 411.4 285.651C410.655 296.499 412.232 312.655 416.773 333.465C417.184 336.172 417.905 338.705 418.487 341.096L441.731 326.365C443.904 325.146 444.982 322.484 445.233 318.818C445.422 316.067 445.042 312.902 444.373 309.604Z" fill="white"/>
<path d="M562.125 389.494C569.169 408.605 576.854 418.396 583.001 417.958C592.148 417.307 599.946 410.213 608.809 398.483C612.102 393.991 615.816 392.054 618.815 391.841C622.563 391.574 625.373 394.11 625.132 397.624C625.048 398.846 624.665 400.09 623.981 401.355C610.318 426.503 587.939 439.5 563.498 441.242C525.711 443.934 497.038 416.025 500.907 359.647C504.776 303.269 537.581 270.98 575.367 268.288C602.358 266.365 624.945 278.591 633.986 307.746C635.084 311.317 635.711 315.225 635.428 319.351C634.862 327.601 630.526 336.424 619.331 342.999L570.521 373.692C565.234 376.805 561.875 380.086 561.561 384.669C561.456 386.197 561.651 387.703 562.125 389.494ZM580.389 332.09L580.034 330.747C571.906 303.503 562.911 291.069 555.564 291.592C551.065 291.913 548.139 297.595 547.415 308.137C546.671 318.985 548.248 335.141 552.788 355.951C553.199 358.658 553.921 361.191 554.503 363.582L577.747 348.851C579.919 347.632 580.997 344.97 581.249 341.304C581.438 338.553 581.058 335.388 580.389 332.09Z" fill="white"/>
<path d="M635.863 257.375C653.107 256.146 665.473 230.331 672.892 213.534C678.721 200.347 684.765 194.899 691.063 194.451C697.361 194.002 698.301 199.865 697.033 218.352L694.642 253.187L718.184 251.509C722.682 251.189 724.575 256.223 724.218 261.418C723.862 266.613 721.256 271.968 716.758 272.288L693.216 273.966L686.443 372.665C685.593 385.041 689.069 388.746 693.418 388.437C694.318 388.373 695.528 388.134 696.609 387.601C696.919 387.427 697.219 387.406 697.519 387.384C699.618 387.235 701.068 390.02 700.89 392.617C700.838 393.381 700.635 394.156 700.293 394.789C696.265 401.309 686.212 419.51 662.82 421.177C647.076 422.298 633.237 415.226 635.428 383.294C635.522 381.919 635.617 380.544 635.872 379.005L642.834 277.555L633.687 278.207C629.339 278.517 627.446 273.483 627.802 268.288C628.159 263.093 630.765 257.738 635.113 257.428L635.863 257.375Z" fill="white"/>
<path d="M780.71 243.862C814.598 241.447 832.662 258.709 830.88 284.682C830.188 294.766 822.409 308.092 812.513 308.797C799.617 309.716 792.355 302.479 793.256 289.339C794.756 267.491 785.415 260.099 775.818 260.782C769.371 261.242 764.268 266.014 763.786 273.043C763.555 276.404 764.203 280.007 766.159 284.124C775.261 303.697 824.535 340.173 822.522 369.507C820.508 398.842 801.379 414.497 766.591 416.976C729.704 419.604 709.339 403.266 711.121 377.293C712.642 355.139 721.765 346.127 734.211 345.24C746.807 344.342 750.735 356.682 749.864 369.363C748.994 382.044 750.46 395.471 763.056 394.574C771.753 393.954 777.476 388.833 778.031 380.735C778.293 376.916 777.269 372.276 774.777 367.284C758.587 335.749 723.824 318.309 725.795 289.585C727.294 267.737 746.972 246.265 780.71 243.862Z" fill="white"/>
</svg>
